# xmcd CD database file
#
# Track frame offsets:
#	150
#	14392
#	36160
#	61433
#	71168
#	87778
#	96858
#	112483
#	118309
#	134279
#	151020
#	159131
#	161000
#
# Disc length: 2431 seconds
#
# Revision: 1
# Processed by: cddbd v1.5.2PL0 Copyright (c) Steve Scherf et al.
# Submitted via: CDex 1.70beta2
#
DISCID=ad097d0d
DTITLE=Mahavishnu Orchestra - Visions of the Emerald Beyond
DYEAR=1991
DGENRE=Jazz
TTITLE0=Eternity's Breath-Part 1■f
TTITLE1=Eternity's Breath-Part 2■f
TTITLE2=Lila's Dance■f
TTITLE3=Can't Stand Your Funk■f
TTITLE4=Pastoral■f
TTITLE5=Faith■f
TTITLE6=Cosmic Strut■f
TTITLE7=If I Could See■f
TTITLE8=Be Happy■f
TTITLE9=Earth Ship■f
TTITLE10=Pegasus■f
TTITLE11=Opus 1■f
TTITLE12=On The Way Home To Earth■f
EXTD=YEAR: 1991
EXTT0=
EXTT1=
EXTT2=
EXTT3=
EXTT4=
EXTT5=
EXTT6=
EXTT7=
EXTT8=
EXTT9=
EXTT10=
EXTT11=
EXTT12=
PLAYORDER=
